<?xml version="1.0" encoding="UTF-8"?><svg xmlns="http://www.w3.org/2000/svg" viewBox="0 0 34.64 40"><defs><style>.d{fill:#fff;}.e{fill:#e0684b;}.f{fill:#e0ded8;}.g{fill:#d5d2ca;}.h{fill:#bb464b;}</style></defs><g id="a"/><g id="b"><g id="c"><g><path class="d" d="M17.32,0L0,9.99V30l17.32,10,17.32-9.99V10L17.32,0Z"/><polygon class="e" points="34.64 10 29.22 6.87 24 9.88 29.42 13.01 34.64 10"/><polygon class="e" points="5.21 13.01 22.53 3.01 17.32 0 0 10 5.21 13.01"/><polygon class="e" points="11.9 23.13 17.32 26.26 22.74 23.13 17.32 20 11.9 23.13"/><polygon class="h" points="29.42 13.01 29.42 26.99 17.32 33.97 5.21 26.99 5.21 13.01 0 10 0 30 17.32 40 34.64 30 34.64 10 29.42 13.01"/><polygon class="h" points="17.32 13.74 11.9 16.87 11.9 23.13 17.32 20 22.74 23.13 22.74 16.87 17.32 13.74"/><polygon class="f" points="29.42 13.01 22.74 16.87 22.74 23.13 17.32 26.26 17.32 33.97 29.42 26.99 29.42 13.01"/><polygon class="g" points="5.21 13.01 11.9 16.87 11.9 23.13 17.32 26.26 17.32 33.97 5.21 26.99 5.21 13.01"/></g></g></g></svg>