<?xml version="1.0" encoding="UTF-8"?><svg xmlns="http://www.w3.org/2000/svg" viewBox="0 0 30.93 40"><defs><style>.d{fill:#d5d2ca;}.e{fill:#bb464b;}</style></defs><g id="a"/><g id="b"><g id="c"><g><path class="d" d="M28.28,18.08l-.28-.43c0-3.7-1.71-5.12-3.56-6.12,.57-.14,1.28-.28,1.42-1.14,1.14-.28,1.28-.71,1.42-1.28,.28,0,1-.57,1-1.42,.43-.28,.71-.71,.57-1.42,.43-.57,.57-1.14,.43-1.57,.57-.71,.28-1.28,.14-1.71,.43-.85,0-1.85-1.28-1.71-.43-.71-1.71-.57-1.85-.57-.14-.28-.43-.43-1.28-.28C24.29,0,23.58,0,23.01,.29c-.71-.57-1.28-.14-1.71,0-.85-.28-1.14,.14-1.57,.28-.57-.14-1,.28-1.42,.85h-.43c-1.42,.71-2.14,2.56-2.42,3.42-.28-.85-.85-2.56-2.42-3.42h-.43c-.43-.43-.71-.85-1.71-.71-.43-.14-.57-.57-1.57-.28C9.06,.15,8.63,0,8.21,0c-.14,0-.28,.14-.57,.28C7.07,0,6.36,0,5.93,.43c-.71-.14-1.14,.14-1.28,.28-.14,0-1.42-.14-1.85,.57-1.42-.14-1.85,.71-1.42,1.71-.14,.57-.28,.85,.28,1.71-.28,.43-.14,1,.43,1.42-.14,.57,0,1.14,.57,1.57-.14,.71,.85,1.14,1,1.57s.28,.85,1.42,1.28c.14,.71,.71,.85,1.42,1.14-1.99,1.14-3.56,2.56-3.56,6.12l-.28,.43c-2.14,1.42-4.13,5.69-1.14,9.25,.14,1.14,.43,1.85,.71,2.7,.43,3.56,3.42,5.27,4.13,5.41,1.14,.85,2.28,1.71,3.99,2.28,1.57,1.57,3.27,2.14,4.84,2.14,1.71,0,3.42-.57,4.84-2.14,1.71-.57,2.85-1.42,3.99-2.28,.71-.14,3.7-1.85,4.13-5.41,.28-.85,.57-1.71,.85-2.7,3.56-3.7,1.57-7.97-.71-9.39Z"/><path class="e" d="M28.28,18.08l-.28-.43c0-3.7-1.71-5.12-3.56-6.12,.57-.14,1.28-.28,1.42-1.14,1.14-.28,1.28-.71,1.42-1.28,.28,0,1-.57,1-1.42,.43-.28,.71-.71,.57-1.42,.43-.57,.57-1.14,.43-1.57,.57-.71,.28-1.28,.14-1.71,.43-.85,0-1.85-1.28-1.71-.43-.71-1.71-.57-1.85-.57-.14-.28-.43-.43-1.28-.28C24.29,0,23.58,0,23.01,.29c-.71-.57-1.28-.14-1.71,0-.85-.28-1.14,.14-1.57,.28-.57-.14-1,.28-1.42,.85h-.43c-1.42,.71-2.14,2.56-2.42,3.42-.28-.85-.85-2.56-2.42-3.42h-.43c-.43-.43-.71-.85-1.71-.71-.43-.14-.57-.57-1.57-.28C9.06,.15,8.63,0,8.21,0c-.14,0-.28,.14-.57,.28C7.07,0,6.36,0,5.93,.43c-.71-.14-1.14,.14-1.28,.28-.14,0-1.42-.14-1.85,.57-1.42-.14-1.85,.71-1.42,1.71-.14,.57-.28,.85,.28,1.71-.28,.43-.14,1,.43,1.42-.14,.57,0,1.14,.57,1.57-.14,.71,.85,1.14,1,1.57s.28,.85,1.42,1.28c.14,.71,.71,.85,1.42,1.14-1.99,1.14-3.56,2.56-3.56,6.12l-.28,.43c-2.14,1.42-4.13,5.69-1.14,9.25,.14,1.14,.43,1.85,.71,2.7,.43,3.56,3.42,5.27,4.13,5.41,1.14,.85,2.28,1.71,3.99,2.28,1.57,1.57,3.27,2.14,4.84,2.14,1.71,0,3.42-.57,4.84-2.14,1.71-.57,2.85-1.42,3.99-2.28,.71-.14,3.7-1.85,4.13-5.41,.28-.85,.57-1.71,.85-2.7,3.56-3.7,1.57-7.97-.71-9.39Zm-1.99-.57c-.14,1.57-7.54-5.12-6.26-5.27,3.56-.57,6.41,1.42,6.26,5.27ZM18.17,2.28c0,.28,.14,.43,.14,.57,.43-.43,.71-.85,1.28-1.42,0,.28-.14,.43,.14,.71,.28-.43,.57-.71,1.28-1.14-.28,.43,0,.57,.14,.71,.43,0,.71-.28,1.42-.57-.14,.28-.43,.43-.14,.71,.43-.28,.71-.43,1.85-.71-.14,.28-.57,.43-.43,.71,.43-.14,1.14-.28,1.71-.43-.28,.28-.57,.43-.28,.57,.57-.14,1.28-.43,1.99-.14l-.43,.43h1.85c-.28,.43-.57,.71-.71,1.42h.71c-.28,.85-.85,1.14-1.14,1.42,.14,.14,.43,.14,.85,0-.28,.57-.71,.85-1.28,1.42,.14,.14,.28,.14,.71,0-.43,.43-.85,.71-1.42,1.28,.14,.14,.43,.14,.71,.14-.43,.43-1.28,.71-1.85,1.14,.14,.28,.43,.14,.57,.14-.43,.28-1.28,.57-1.85,.71,.14,.14,.28,.28,.57,.28-.71,.43-1.85,.14-2.14,.43,0,.14,.28,.28,.43,.43-1.28,0-4.41,0-5.12-2.42,1.28-1.42,3.42-2.85,7.26-4.84-2.85,1.14-5.69,2.28-7.83,4.13-1.99-1.42-.43-4.41,1-5.69Zm-2.7,8.97c1.85,0,4.13,1.42,4.13,2.7s-1.71,2.14-4.13,2.14-4.13-1.28-4.13-2.28c0-1.14,1.99-2.56,4.13-2.56Zm-9.39-1c.28,0,.43-.14,.57-.28-.71-.28-1.42-.43-1.99-.85,.28,0,.43,0,.71-.14-.57-.43-1.14-.71-1.71-1.14,.28,0,.57,0,.71-.14-.43-.28-.85-.71-1.42-1.14h.71c-.28-.57-.85-.85-1.14-1.42,.28,.14,.57,.14,.85,0,0-.43-.85-.57-1.14-1.28h.71c-.14-.57-.43-1.14-.57-1.42h1.85l-.43-.57c.71-.14,1.57,0,1.99,.14,.28-.14,0-.43-.28-.57,.57,.14,1.28,.28,1.71,.43,.28-.28-.14-.43-.57-.71,1.14,.14,1.42,.43,1.85,.71,.28-.28,0-.43-.14-.71,.71,.28,1.14,.57,1.57,.85,.14-.14,.28-.28,.14-.71,.28,.28,.71,.57,1.14,1.14,.28-.14,.14-.43,.14-.71,.43,.43,.85,.85,1.28,1.42v-.85c1.28,1.28,3.13,4.27,.43,5.55-2.14-1.85-4.84-3.27-7.83-4.13,3.99,1.99,6.12,3.56,7.26,4.84-.57,2.42-3.84,2.56-5.12,2.42,.28-.14,.43-.28,.43-.43,0-.14-1,0-1.71-.28Zm4.27,1.85c1.28,.14-6.12,6.69-6.26,5.27-.14-3.7,2.7-5.84,6.26-5.27ZM2.51,26.62c-1.85-1.57-2.42-5.69,.85-7.69,2.14-.57,.85,8.4-.85,7.69Zm7.12,7.69c-1.14,.57-3.56,.28-5.27-2.14-1.28-2.14-1.14-4.27-.14-4.84,1.28-.71,3.27,.28,4.55,1.99,1.28,1.28,1.85,4.13,.85,4.98Zm-1.99-9.25c-1.85-1.28-2.14-3.99-.71-6.26,1.57-2.14,4.13-3.13,5.98-1.85s2.14,3.99,.71,6.26c-1.42,2.28-4.13,2.99-5.98,1.85Zm7.83,13.52c-2.28,.14-4.41-1.85-4.41-2.42,0-.85,2.7-1.71,4.55-1.71,1.85-.14,4.27,.57,4.27,1.57,0,.57-2.28,2.56-4.41,2.56Zm4.55-9.82c0,2.28-1.99,4.13-4.41,4.13s-4.55-1.85-4.55-4.13,1.99-4.13,4.41-4.13c2.56,0,4.55,1.85,4.55,4.13Zm-2.7-5.69c-1.57-2.14-1.14-5.12,.71-6.26,1.85-1.28,4.55-.43,5.98,1.85s1.14,5.12-.71,6.26c-1.85,1-4.7,.28-5.98-1.85Zm9.11,9.11c-1.99,2.7-4.55,2.7-5.55,1.99-1.14-.85-.28-3.99,1.28-5.69,1.57-1.85,3.42-3.13,4.41-2.14,.85,1.14,1.28,3.99-.14,5.84Zm1.42-5.69c-1.71,.71-3.13-8.11-.85-7.69,3.27,1.85,2.7,6.26,.85,7.69Z"/></g></g></g></svg>